<svg version="1.1" id="Layer_1" xmlns:x="ns_extend;" xmlns:i="ns_ai;" xmlns:graph="ns_graphs;" xmlns="http://www.w3.org/2000/svg" xmlns:xlink="http://www.w3.org/1999/xlink" x="0px" y="0px" viewBox="0 0 87.5 84.5" style="enable-background:new 0 0 87.5 84.5;" xml:space="preserve">
 <style type="text/css">
  .st0{fill:#326DE6;}
	.st1{fill:#FFFFFF;}
 </style>
 <metadata>
  <sfw xmlns="ns_sfw;">
   <slices>
   </slices>
   <sliceSourceBounds bottomLeftOrigin="true" height="84.5" width="87.5" x="-0.1" y="0">
   </sliceSourceBounds>
  </sfw>
 </metadata>
 <g id="Layer_2_1_">
  <g id="Layer_1-2">
   <path class="st0" d="M79.9,18.8c-0.5-1.6-1.7-2.9-3.2-3.7L46.2,0.5C45.4,0.1,44.5,0,43.7,0S42,0,41.2,0.2L10.7,14.9
			c-1.5,0.7-2.6,2-3,3.7L0.1,51.5c-0.3,1.7,0.1,3.4,1.1,4.8l21.1,26.1c1.2,1.2,2.9,2,4.6,2.1h33.7c1.8,0.2,3.5-0.6,4.6-2.1
			l21.1-26.1c1-1.4,1.4-3.1,1.2-4.8L79.9,18.8z">
   </path>
   <path class="st1" d="M75.1,50.2L75.1,50.2C75,50.2,75,50.2,75.1,50.2C75,50,74.7,50,74.6,50c-0.4-0.1-0.8-0.1-1.2-0.1
			c-0.2,0-0.4,0-0.6-0.1h-0.1c-1.1-0.1-2.3-0.3-3.4-0.6c-0.3-0.1-0.6-0.4-0.7-0.7c0-0.1-0.1-0.1-0.1-0.1l0,0l-0.8-0.2
			c0.4-2.9,0.2-5.9-0.4-8.8c-0.7-2.9-1.9-5.7-3.5-8.2l0.6-0.6l0,0v-0.1c0-0.3,0.1-0.7,0.3-0.9c0.9-0.7,1.8-1.4,2.8-1.9l0,0
			c0.2-0.1,0.4-0.2,0.6-0.3c0.4-0.2,0.7-0.4,1.1-0.6c0.1-0.1,0.2-0.1,0.3-0.2s0.1-0.1,0.1-0.1l0,0c0.9-0.7,1.1-1.9,0.4-2.8
			c-0.3-0.4-0.9-0.7-1.4-0.7s-1,0.2-1.4,0.5l0,0l-0.1,0.1c-0.1,0.1-0.2,0.2-0.3,0.2c-0.3,0.3-0.6,0.6-0.8,0.9
			c-0.1,0.2-0.3,0.3-0.4,0.4l0,0c-0.8,0.8-1.6,1.6-2.5,2.2c-0.2,0.1-0.4,0.2-0.6,0.2c-0.1,0-0.3,0-0.4-0.1l0,0L61.3,28
			c-0.8-0.8-1.7-1.6-2.5-2.4c-3.7-2.9-8.3-4.7-13-5.2l-0.1-0.8l0,0l-0.1-0.1c-0.3-0.2-0.4-0.5-0.5-0.8c0-1.1,0-2.2,0.2-3.4v-0.1
			c0-0.2,0.1-0.4,0.1-0.6c0.1-0.4,0.1-0.8,0.2-1.2v-0.6l0,0c0.1-1-0.7-2-1.7-2c-0.6,0-1.2,0.2-1.6,0.6c-0.4,0.4-0.6,0.9-0.6,1.4l0,0
			v0.5c0,0.4,0.1,0.8,0.2,1.2c0.1,0.2,0.1,0.4,0.1,0.6v0.1c0.2,1.1,0.2,2.2,0.2,3.4c-0.1,0.3-0.2,0.6-0.5,0.8l-0.1,0.1l0,0l-0.1,0.8
			c-1.1,0.1-2.2,0.3-3.4,0.5c-4.7,1-9,3.5-12.3,7l-0.6-0.4h-0.1c-0.1,0-0.2,0.1-0.4,0.1c-0.2,0-0.5-0.1-0.6-0.2
			c-0.9-0.7-1.7-1.5-2.5-2.3l0,0c-0.1-0.2-0.3-0.3-0.4-0.4c-0.3-0.3-0.5-0.6-0.8-0.9c-0.1-0.1-0.2-0.1-0.3-0.2S20,23.4,20,23.4l0,0
			c-0.4-0.3-0.9-0.5-1.4-0.5c-0.6,0-1.1,0.2-1.5,0.7c-0.6,0.9-0.4,2.1,0.4,2.8l0,0c0.1,0,0.1,0.1,0.1,0.1s0.2,0.2,0.3,0.2
			c0.3,0.2,0.7,0.4,1.1,0.6c0.2,0.1,0.4,0.2,0.6,0.3l0,0c1,0.6,1.9,1.2,2.8,1.9c0.2,0.2,0.4,0.6,0.3,0.9v0.1l0,0l0.6,0.6
			c-0.1,0.2-0.2,0.3-0.3,0.5c-3.1,4.9-4.3,10.7-3.4,16.4l-0.8,0.2l0,0c0,0.1-0.1,0.1-0.1,0.1c-0.1,0.3-0.4,0.5-0.7,0.7
			c-1.1,0.3-2.2,0.5-3.4,0.6h-0.1c-0.2,0-0.4,0-0.6,0.1c-0.4,0-0.8,0.1-1.2,0.1c-0.1,0-0.2,0.1-0.4,0.1c-0.1,0-0.1,0-0.2,0.1l0,0
			c-1.1,0.2-1.8,1.2-1.6,2.3c0.2,0.9,1.1,1.5,2,1.4c0.2,0,0.3,0,0.5-0.1l0,0c0.1,0,0.1,0,0.1-0.1s0.2-0.1,0.4-0.1
			c0.4-0.1,0.8-0.3,1.1-0.4c0.2-0.1,0.4-0.2,0.6-0.2h0.1c1-0.4,2.1-0.7,3.2-0.9h0.1c0.3,0,0.6,0.1,0.8,0.3c0.1,0,0.1,0.1,0.1,0.1
			l0,0l0.9-0.1c1.5,4.6,4.3,8.7,8.2,11.7c0.9,0.7,1.7,1.3,2.7,1.8l-0.4,0.8l0,0c0,0.1,0.1,0.1,0.1,0.1c0.2,0.3,0.2,0.7,0.1,1
			c-0.4,1-1,2-1.6,2.9v0.1c-0.1,0.2-0.2,0.3-0.4,0.5s-0.4,0.6-0.7,1c-0.1,0.1-0.1,0.2-0.2,0.3c0,0,0,0.1-0.1,0.1l0,0
			c-0.5,1-0.1,2.2,0.8,2.7c0.2,0.1,0.5,0.2,0.8,0.2c0.8,0,1.5-0.5,1.9-1.2l0,0c0,0,0-0.1,0.1-0.1c0-0.1,0.1-0.2,0.2-0.3
			c0.1-0.4,0.3-0.7,0.4-1.1l0.2-0.6l0,0c0.3-1.1,0.8-2.1,1.3-3.1c0.2-0.3,0.5-0.5,0.8-0.6c0.1,0,0.1,0,0.1-0.1l0,0l0.4-0.8
			c2.8,1.1,5.7,1.6,8.7,1.6c1.8,0,3.6-0.2,5.4-0.6c1.1-0.2,2.2-0.6,3.2-0.9l0.4,0.7l0,0c0.1,0,0.1,0,0.1,0.1
			c0.3,0.1,0.6,0.3,0.8,0.6c0.5,1,0.9,2,1.3,3v0.1l0.2,0.6c0.1,0.4,0.2,0.8,0.4,1.1c0.1,0.1,0.1,0.2,0.2,0.3c0,0,0,0.1,0.1,0.1l0,0
			c0.4,0.7,1.1,1.2,1.9,1.2c0.3,0,0.5-0.1,0.8-0.2c0.4-0.2,0.8-0.6,0.9-1.1c0.1-0.5,0.1-1.1-0.1-1.6l0,0c0-0.1-0.1-0.1-0.1-0.1
			c0-0.1-0.1-0.2-0.2-0.3c-0.2-0.4-0.4-0.7-0.7-1c-0.1-0.2-0.2-0.3-0.4-0.5v-0.1c-0.7-0.9-1.2-1.9-1.6-2.9c-0.1-0.3-0.1-0.7,0.1-1
			c0-0.1,0.1-0.1,0.1-0.1l0,0l-0.3-0.8c5.2-3.1,9-7.9,10.9-13.6l0.8,0.1l0,0c0.1,0,0.1-0.1,0.1-0.1c0.2-0.2,0.5-0.3,0.8-0.3H69
			c1.1,0.2,2.2,0.5,3.2,0.9h0.1c0.2,0.1,0.4,0.2,0.6,0.2c0.4,0.2,0.7,0.3,1.1,0.4c0.1,0,0.2,0.1,0.4,0.1c0.1,0,0.1,0,0.2,0.1l0,0
			c0.2,0.1,0.3,0.1,0.5,0.1c0.9,0,1.7-0.6,2-1.4C76.8,51.2,76.1,50.4,75.1,50.2z M46.3,47.1l-2.7,1.3l-2.7-1.3l-0.8-2.9l1.9-2.4h3.1
			l1.9,2.4L46.3,47.1z M62.6,40.6c0.5,2.1,0.6,4.2,0.4,6.3l-9.5-2.7l0,0c-0.9-0.2-1.4-1.1-1.2-2c0.1-0.3,0.2-0.5,0.4-0.7l7.5-6.8
			C61.3,36.5,62.1,38.5,62.6,40.6L62.6,40.6z M57.2,31l-8.1,5.8c-0.7,0.4-1.7,0.3-2.2-0.4c-0.2-0.2-0.3-0.4-0.3-0.7L46,25.6
			C50.2,26.1,54.2,28,57.2,31z M39.1,25.9l2-0.4l-0.6,10l0,0c0,0.9-0.8,1.6-1.7,1.6c-0.3,0-0.5-0.1-0.8-0.2L29.9,31
			C32.4,28.5,35.6,26.7,39.1,25.9z M26.9,34.7l7.4,6.6l0,0c0.7,0.6,0.8,1.6,0.2,2.3c-0.2,0.3-0.4,0.4-0.8,0.5l-9.6,2.8
			C23.7,42.7,24.7,38.4,26.9,34.7z M25.2,51.6l9.9-1.7c0.8,0,1.6,0.5,1.7,1.3c0.1,0.3,0.1,0.7-0.1,1l0,0l-3.8,9.2
			C29.4,59.1,26.6,55.6,25.2,51.6z M47.9,64c-1.4,0.3-2.9,0.5-4.4,0.5c-2.1,0-4.3-0.4-6.3-1l4.9-8.9c0.5-0.6,1.3-0.8,2-0.4
			c0.3,0.2,0.5,0.4,0.8,0.7l0,0l4.8,8.7C49.2,63.7,48.6,63.8,47.9,64z M60.1,55.3c-1.5,2.4-3.6,4.5-6,6L50.2,52
			c-0.2-0.8,0.1-1.6,0.9-2c0.3-0.1,0.6-0.2,0.9-0.2l10,1.7C61.5,52.9,60.9,54.2,60.1,55.3z">
   </path>
  </g>
 </g>
</svg>