<svg xmlns="http://www.w3.org/2000/svg" width="370" height="46" viewBox="0 0 370 46" fill="none"><path d="M285.945 11.2574C286.812 11.2574 287.57 10.9865 288.112 10.4448C288.708 9.90315 289.033 9.19895 289.033 8.33224C289.033 7.46554 288.708 6.76134 288.112 6.21965C287.516 5.67796 286.812 5.40712 285.945 5.40712C285.078 5.40712 284.32 5.67796 283.724 6.21965C283.128 6.76134 282.803 7.46554 282.803 8.33224C282.803 9.19895 283.128 9.90315 283.724 10.4448C284.32 10.9865 285.078 11.2574 285.945 11.2574Z" fill="#FAFAFA"></path><path d="M119.158 23.4997C119.158 21.8204 118.833 20.3579 118.129 19.1662C117.479 17.9203 116.558 16.9994 115.367 16.2952C114.175 15.591 112.766 15.266 111.141 15.266C109.408 15.266 107.783 15.6993 106.266 16.5119C104.749 17.3244 103.504 18.5161 102.583 20.1412C101.662 21.7121 101.174 23.5539 101.174 25.7748C101.174 27.9957 101.608 29.7291 102.42 31.3C103.233 32.8168 104.37 34.0085 105.833 34.821C107.295 35.6336 108.975 36.0669 110.871 36.0669C112.766 36.0669 114.446 35.6336 115.8 34.821C117.208 33.9543 118.292 32.8168 119.104 31.3L117.913 30.2167C117.208 30.975 116.45 31.6251 115.637 32.1126C114.825 32.6001 113.796 32.8168 112.604 32.8168C110.871 32.8168 109.462 32.2209 108.27 31.0292C107.133 29.8375 106.537 28.1041 106.429 25.7206H118.996C119.05 25.1248 119.158 24.3664 119.158 23.4997ZM114.012 23.2288C113.687 23.6622 113.037 23.8247 112.062 23.8247H106.429C106.537 22.1996 106.808 20.8996 107.241 19.9245C107.729 18.9495 108.27 18.2995 108.866 17.8661C109.516 17.4328 110.166 17.2161 110.816 17.2161C111.846 17.2161 112.712 17.5953 113.416 18.4078C114.121 19.2203 114.5 20.2495 114.5 21.4954C114.446 22.1996 114.283 22.7955 114.012 23.2288Z" fill="#FAFAFA"></path><path d="M149.114 16.9453C147.706 15.8077 145.755 15.2119 143.264 15.2119C140.772 15.2119 138.822 15.8077 137.413 17.0536C136.005 18.2453 135.301 19.8704 135.301 21.8747C135.301 24.529 136.384 26.4249 138.551 27.5083C137.522 28.4291 136.763 29.2958 136.276 30.1084C135.788 30.8667 135.572 31.6793 135.572 32.4376C135.572 33.196 135.788 33.846 136.167 34.3877C136.601 34.9294 137.197 35.3628 138.063 35.6336C136.763 36.2836 135.788 36.9337 135.247 37.6379C134.651 38.3962 134.38 39.2088 134.38 40.0755C134.38 40.9422 134.651 41.8089 135.192 42.5131C135.788 43.2715 136.709 43.8131 137.955 44.3007C139.255 44.734 140.934 44.9507 143.047 44.9507C145.485 44.9507 147.489 44.6257 149.114 43.9215C150.739 43.2173 151.985 42.3506 152.797 41.213C153.664 40.0755 154.043 38.8838 154.043 37.5837C154.043 35.8503 153.447 34.4961 152.31 33.4669C151.172 32.4376 149.276 31.9501 146.568 31.9501H141.422C140.501 31.9501 139.905 31.7876 139.526 31.5168C139.201 31.1918 139.038 30.8126 139.038 30.2709C139.038 29.4583 139.309 28.7 139.797 27.9958C140.826 28.3208 141.964 28.4291 143.209 28.4291C145.701 28.4291 147.706 27.8333 149.06 26.6416C150.468 25.3957 151.172 23.7706 151.172 21.8205C151.172 20.4663 150.901 19.3287 150.306 18.3537H154.26V15.4827L153.664 15.0494L149.114 16.9453ZM139.147 36.1753C139.959 36.3378 140.826 36.4462 141.855 36.4462H146.405C147.706 36.4462 148.626 36.717 149.168 37.2587C149.71 37.8004 149.981 38.4504 149.981 39.2088C149.981 40.238 149.439 41.1047 148.301 41.8089C147.218 42.5131 145.593 42.8923 143.426 42.8923C141.693 42.8923 140.393 42.6214 139.472 42.0256C138.551 41.4297 138.063 40.5088 138.063 39.2629C138.009 38.2337 138.388 37.2045 139.147 36.1753ZM145.81 25.3957C145.214 26.3165 144.347 26.7499 143.209 26.7499C142.072 26.7499 141.259 26.3165 140.718 25.4498C140.122 24.5831 139.851 23.3914 139.851 21.9288C139.851 20.4663 140.176 19.2746 140.772 18.4079C141.422 17.487 142.289 17.0536 143.372 17.0536C144.455 17.0536 145.322 17.487 145.864 18.3537C146.46 19.2204 146.785 20.3579 146.785 21.8205C146.73 23.2831 146.46 24.529 145.81 25.3957Z" fill="#FAFAFA"></path><path d="M176.198 30.0001V22.5789C176.198 20.033 175.711 18.1912 174.736 16.9995C173.761 15.8078 172.352 15.2119 170.619 15.2119C168.073 15.2119 165.69 16.4037 163.631 18.8413V11.5284L163.794 5.73235L163.198 5.35316L155.885 7.19491V8.81998L158.864 9.25334V29.9459C158.864 31.1376 158.864 32.221 158.81 33.2502L156.102 33.7919V35.4712H166.231V33.7919L163.794 33.3044C163.74 32.2752 163.74 31.1376 163.74 30.0001V21.0622C165.365 19.4913 166.99 18.7329 168.506 18.7329C169.536 18.7329 170.294 19.0579 170.673 19.6538C171.107 20.2497 171.323 21.3872 171.323 22.9581V30.0001C171.323 31.1376 171.323 32.221 171.269 33.2502L168.669 33.7919V35.4712H178.744V33.7919L176.253 33.3044C176.198 32.2752 176.198 31.1918 176.198 30.0001Z" fill="#FAFAFA"></path><path d="M102.583 8.27824H93.5364V10.1742L96.8949 10.6617L91.9113 28.5916L86.4403 10.6075L90.2863 10.1742V8.27824H78.5857V10.1742L82.1609 10.6075L76.5273 28.375L71.8688 10.6075L75.2814 10.1742V8.27824H63.3642V10.1742L66.3435 10.4992L73.7105 35.5794H76.5273L82.7026 15.5911L89.2029 35.5794H92.0197L99.1158 10.6617L102.42 10.12V8.27824H102.583Z" fill="#FAFAFA"></path><path d="M127.23 11.42C128.096 11.42 128.855 11.1492 129.396 10.6075C129.992 10.0658 130.317 9.36162 130.317 8.49491C130.317 7.62821 129.992 6.92401 129.396 6.38232C128.801 5.84063 128.096 5.56978 127.23 5.56978C126.363 5.56978 125.605 5.84063 125.009 6.38232C124.413 6.92401 124.088 7.62821 124.088 8.49491C124.088 9.36162 124.413 10.0658 125.009 10.6075C125.605 11.1492 126.363 11.42 127.23 11.42Z" fill="#FAFAFA"></path><path d="M129.667 29.9457V21.387L129.776 15.5909L129.126 15.1575L121.759 17.7577V19.3286L124.684 19.7077C124.738 20.5203 124.792 21.3328 124.792 22.0912C124.846 22.8496 124.846 23.7704 124.846 24.8538V29.8915C124.846 31.0833 124.846 32.1666 124.792 33.1959L122.084 33.7375V35.4168H132.267V33.7375L129.776 33.25C129.721 32.2208 129.667 31.1374 129.667 29.9457Z" fill="#FAFAFA"></path><path d="M310.917 33.3044C310.104 33.3044 309.725 32.7085 309.725 31.4626V22.5248C309.725 19.8705 309.183 17.9204 308.1 16.837C307.017 15.6995 305.283 15.1036 302.9 15.1036C300.516 15.1036 298.404 15.5911 296.887 16.5662C295.37 17.5412 294.504 18.8413 294.287 20.5205C294.504 21.7664 295.262 22.3622 296.562 22.3622C297.266 22.3622 297.808 22.1456 298.295 21.6581C298.783 21.1705 299.054 20.4663 299.162 19.4913L299.65 17.2162C299.975 17.162 300.246 17.1079 300.516 17.1079C300.841 17.0537 301.112 17.0537 301.329 17.0537C302.683 17.0537 303.604 17.3787 304.092 18.0829C304.633 18.7329 304.904 20.033 304.904 21.9289V23.0664C304.2 23.2831 303.496 23.4456 302.792 23.6623C302.087 23.879 301.491 24.0415 300.95 24.2582C299 24.9082 297.483 25.5041 296.4 26.2083C295.37 26.8583 294.612 27.5625 294.233 28.3208C293.799 29.0792 293.637 29.8918 293.637 30.7585C293.637 32.4377 294.179 33.7378 295.208 34.6045C296.291 35.4712 297.591 35.9045 299.108 35.9045C300.408 35.9045 301.491 35.6337 302.304 35.1461C303.116 34.6045 304.037 33.7919 305.067 32.7627C305.337 33.7378 305.771 34.4961 306.475 35.0378C307.179 35.5795 308.046 35.8503 309.129 35.8503C310.104 35.8503 310.917 35.6337 311.567 35.2545C312.271 34.8211 312.813 34.1711 313.354 33.2502L312.434 32.4377C311.892 32.9794 311.404 33.3044 310.917 33.3044ZM304.85 31.1918C303.875 31.896 303.117 32.3294 302.683 32.546C302.196 32.7627 301.762 32.871 301.275 32.871C300.462 32.871 299.758 32.6544 299.162 32.1668C298.62 31.6793 298.35 30.8668 298.35 29.8376C298.35 29.025 298.62 28.2667 299.108 27.5625C299.65 26.8583 300.571 26.2083 301.925 25.6666C302.304 25.5041 302.683 25.3957 303.225 25.2332C303.767 25.0707 304.308 24.9082 304.85 24.6915V31.1918Z" fill="#FAFAFA"></path><path d="M324.676 23.3915L323.051 22.9039C321.642 22.4164 320.721 21.9831 320.18 21.5497C319.692 21.0622 319.421 20.4663 319.421 19.7621C319.421 18.9496 319.746 18.3537 320.342 17.8662C320.938 17.3787 321.805 17.162 322.888 17.162C323.809 17.162 324.676 17.3245 325.434 17.6495L326.193 21.1164H328.901L329.118 16.7828C328.143 16.2411 327.168 15.8078 326.193 15.5369C325.218 15.2119 324.188 15.1036 322.997 15.1036C321.317 15.1036 319.909 15.3744 318.717 15.9703C317.58 16.512 316.713 17.2704 316.117 18.2454C315.521 19.1663 315.196 20.1955 315.196 21.3872C315.196 22.8498 315.63 24.0415 316.496 25.0165C317.417 25.9916 318.609 26.6958 320.126 27.1833L322.184 27.8875C323.484 28.3208 324.405 28.8084 324.947 29.2959C325.488 29.7834 325.759 30.3793 325.759 31.1376C325.759 32.0043 325.434 32.7085 324.73 33.1961C324.026 33.6836 322.997 33.9544 321.588 33.9544C320.451 33.9544 319.367 33.7377 318.392 33.3586L317.634 29.5667H314.871L314.925 34.3336C315.955 34.9295 316.984 35.3087 318.067 35.5795C319.151 35.9045 320.288 36.0129 321.534 36.0129C324.297 36.0129 326.409 35.417 327.872 34.2253C329.389 33.0336 330.147 31.5168 330.147 29.6751C330.147 28.2667 329.714 27.0208 328.901 26.0457C328.089 24.9082 326.68 24.0415 324.676 23.3915Z" fill="#FAFAFA"></path><path d="M351.056 23.3373C351.056 21.6581 350.731 20.1955 350.027 19.0038C349.377 17.7579 348.456 16.837 347.264 16.1328C346.073 15.4286 344.664 15.1036 343.039 15.1036C341.306 15.1036 339.681 15.5369 338.164 16.3495C336.647 17.162 335.401 18.3537 334.48 19.9788C333.56 21.5497 333.072 23.3915 333.072 25.6124C333.072 27.7792 333.505 29.5667 334.318 31.1376C335.13 32.6544 336.268 33.8461 337.731 34.6586C339.193 35.4712 340.872 35.9045 342.768 35.9045C344.664 35.9045 346.343 35.4712 347.698 34.6586C349.106 33.7919 350.189 32.6544 351.002 31.1376L349.81 30.0543C349.106 30.8126 348.348 31.4627 347.535 31.9502C346.723 32.4377 345.693 32.6544 344.502 32.6544C342.768 32.6544 341.36 32.0585 340.168 30.8668C339.031 29.6751 338.435 27.9417 338.326 25.5582H350.894C351.002 24.9624 351.056 24.204 351.056 23.3373ZM345.91 23.0123C345.585 23.4456 344.935 23.6081 343.96 23.6081H338.326C338.435 21.9831 338.706 20.683 339.139 19.708C339.626 18.7329 340.168 18.0829 340.764 17.6495C341.414 17.2162 342.064 16.9995 342.714 16.9995C343.743 16.9995 344.61 17.3787 345.314 18.1912C346.018 19.0038 346.398 20.033 346.398 21.2789C346.398 22.0372 346.235 22.6331 345.91 23.0123Z" fill="#FAFAFA"></path><path d="M190.174 33.3585C189.524 33.3585 188.982 33.1418 188.549 32.6543C188.17 32.1668 187.953 31.4626 187.953 30.4334V18.3537H192.937V15.8077H188.007L188.17 10.1742H184.865L183.295 15.8077L179.99 16.2411V18.3537H183.024V27.0749C183.024 27.8874 183.024 28.5375 182.97 29.1333V30.9209C182.97 32.7085 183.457 34.0627 184.378 34.8752C185.299 35.6878 186.599 36.1211 188.224 36.1211C189.524 36.1211 190.607 35.9045 191.528 35.4169C192.449 34.9294 193.153 34.2794 193.641 33.4127L192.666 32.3835C191.799 32.9793 190.932 33.3043 190.174 33.3585Z" fill="#FAFAFA"></path><path d="M368.282 25.8832C367.415 24.854 366.007 24.0414 364.003 23.3372L362.377 22.8497C360.969 22.3622 360.048 21.9288 359.507 21.4955C359.019 21.008 358.748 20.4121 358.748 19.7079C358.748 18.8954 359.073 18.2995 359.669 17.812C360.265 17.3245 361.132 17.1078 362.215 17.1078C363.136 17.1078 364.003 17.2703 364.761 17.5953L365.519 21.0621H368.228L368.444 16.7286C367.469 16.1869 366.494 15.7536 365.519 15.4827C364.544 15.1577 363.515 15.0494 362.323 15.0494C360.644 15.0494 359.236 15.3202 358.044 15.9161C356.906 16.4578 356.04 17.2161 355.444 18.1912C354.848 19.1121 354.523 20.1413 354.523 21.333C354.523 22.7955 354.956 23.9873 355.823 24.9623C356.744 25.9374 357.936 26.6415 359.452 27.1291L361.511 27.8333C362.811 28.2666 363.732 28.7541 364.273 29.2417C364.815 29.7292 365.086 30.325 365.086 31.0834C365.086 31.9501 364.761 32.6543 364.057 33.1418C363.353 33.6294 362.323 33.9002 360.915 33.9002C359.777 33.9002 358.694 33.6835 357.719 33.3043L356.961 29.5125H354.198L354.252 34.2794C355.281 34.8753 356.311 35.2544 357.394 35.5253C358.477 35.8503 359.615 35.9586 360.861 35.9586C363.623 35.9586 365.736 35.3628 367.199 34.171C368.715 32.9793 369.474 31.4626 369.474 29.6208C369.582 28.1583 369.149 26.9124 368.282 25.8832Z" fill="#FAFAFA"></path><path d="M205.125 23.5539L203.5 23.0664C202.091 22.5789 201.17 22.1455 200.629 21.7122C200.141 21.2246 199.87 20.6288 199.87 19.9246C199.87 19.1121 200.195 18.5162 200.791 18.0287C201.387 17.5411 202.254 17.3245 203.337 17.3245C204.258 17.3245 205.125 17.487 205.883 17.812L206.641 21.2788H209.35L209.567 16.9995C208.592 16.4578 207.617 16.0244 206.641 15.7536C205.666 15.4286 204.637 15.3202 203.445 15.3202C201.766 15.3202 200.358 15.5911 199.166 16.1869C198.029 16.7286 197.162 17.487 196.566 18.462C195.97 19.3829 195.645 20.4121 195.645 21.6038C195.645 23.0664 196.078 24.2581 196.945 25.2332C197.866 26.2082 199.058 26.9124 200.575 27.3999L202.633 28.1041C203.933 28.5375 204.854 29.025 205.396 29.5125C205.937 30 206.208 30.5959 206.208 31.3543C206.208 32.221 205.883 32.9252 205.179 33.4127C204.475 33.9002 203.445 34.171 202.037 34.171C200.9 34.171 199.816 33.9544 198.841 33.5752L198.083 29.7834H195.32L195.374 34.5502C196.404 35.1461 197.433 35.5253 198.516 35.7961C199.599 36.1211 200.737 36.2295 201.983 36.2295C204.746 36.2295 206.858 35.6336 208.321 34.4419C209.837 33.2502 210.596 31.7334 210.596 29.8917C210.596 28.4833 210.162 27.2374 209.35 26.2624C208.537 25.0707 207.129 24.2039 205.125 23.5539Z" fill="#FAFAFA"></path><path d="M288.383 29.7833V21.2246L288.491 15.4285L287.841 14.9951L280.474 17.5953V19.1662L283.399 19.5454C283.453 20.3579 283.453 21.1704 283.453 21.9288C283.507 22.6872 283.507 23.608 283.507 24.6914V29.7291C283.507 30.9209 283.507 32.0042 283.453 33.0334L280.745 33.5751V35.2544H290.928V33.5751L288.437 33.0876C288.383 32.0584 288.383 30.975 288.383 29.7833Z" fill="#FAFAFA"></path><path d="M237.572 19.0578L240.768 19.5995C240.443 21.062 240.064 22.4163 239.576 23.6621C239.089 24.8539 238.547 26.0456 237.789 27.2915C237.084 26.5873 236.434 25.8831 235.73 25.1247C235.026 24.3663 234.322 23.5538 233.509 22.6871C232.805 21.9287 232.209 21.2787 231.667 20.737C231.126 20.1412 230.692 19.6536 230.313 19.2203C232.426 18.1911 233.943 17.1619 234.972 16.0785C235.947 14.9951 236.434 13.7492 236.434 12.3408C236.434 10.7699 235.839 9.52402 234.701 8.54897C233.563 7.57393 231.884 7.08641 229.717 7.08641C227.551 7.08641 225.871 7.6281 224.571 8.71148C223.217 9.79487 222.567 11.3116 222.567 13.2075C222.567 14.2367 222.784 15.3201 223.163 16.3493C223.542 17.4327 224.246 18.5161 225.221 19.7078C225.276 19.762 225.33 19.762 225.33 19.8161C225.384 19.8703 225.384 19.8703 225.438 19.9245C223.325 20.9537 221.755 22.0912 220.725 23.4455C219.696 24.7455 219.209 26.2623 219.209 27.9957C219.209 29.3499 219.534 30.5416 220.238 31.6792C220.942 32.7626 221.917 33.6834 223.217 34.3335C224.517 34.9835 226.034 35.3085 227.767 35.3085C229.717 35.3085 231.342 34.9835 232.643 34.3876C233.943 33.7376 235.026 32.9792 235.893 32.1125C236.109 32.3292 236.272 32.4917 236.489 32.7084C236.705 32.9251 236.922 33.0876 237.084 33.3042C237.897 34.0626 238.709 34.6043 239.522 34.8751C240.335 35.2002 241.31 35.3085 242.501 35.3085C243.097 35.3085 243.585 35.2543 244.126 35.2002C244.668 35.146 245.264 35.0377 246.076 34.821L246.347 32.5459L242.393 31.8417C241.797 31.1916 241.255 30.65 240.714 30.0541C240.172 29.5124 239.684 28.9707 239.197 28.429C240.172 27.0206 240.985 25.6122 241.635 24.2038C242.339 22.7954 242.935 21.1704 243.422 19.3828L246.401 18.8953V17.1077H237.734L237.572 19.0578ZM227.388 9.63236C228.038 8.98233 228.797 8.65732 229.717 8.65732C230.638 8.65732 231.397 8.98233 231.992 9.57819C232.588 10.174 232.913 10.9866 232.913 12.07C232.913 13.0992 232.588 14.0742 231.992 15.0493C231.342 16.0243 230.476 16.9993 229.392 17.9744C229.176 17.7035 228.959 17.4327 228.797 17.216C228.58 16.9452 228.417 16.7285 228.201 16.4577C227.551 15.591 227.117 14.7784 226.901 14.1284C226.684 13.4242 226.576 12.7742 226.576 12.1241C226.467 11.1491 226.792 10.3366 227.388 9.63236ZM229.663 32.4375C228.472 32.4375 227.442 32.1667 226.521 31.6792C225.655 31.1375 224.951 30.4874 224.463 29.5666C223.975 28.6999 223.705 27.7248 223.705 26.6956C223.705 25.7206 223.921 24.7997 224.3 23.8247C224.68 22.8496 225.384 21.9829 226.413 21.2245C226.955 21.8746 227.551 22.6329 228.201 23.4455C228.905 24.258 229.717 25.233 230.638 26.3706C231.234 27.0748 231.83 27.8332 232.48 28.5915C233.13 29.3499 233.834 30.1083 234.538 30.8666C233.184 31.8958 231.559 32.3834 229.663 32.4375Z" fill="#FAFAFA"></path><path d="M269.965 20.9536C272.403 20.4661 274.136 19.7078 275.111 18.516C276.086 17.3243 276.574 16.0243 276.574 14.6159C276.574 12.7199 275.815 11.149 274.299 9.95732C272.782 8.71143 270.453 8.11557 267.311 8.11557H254.744V10.0657L258.21 10.4448C258.265 12.1782 258.265 13.9658 258.265 15.6992V27.8331C258.265 29.5665 258.21 31.2999 258.21 33.0333L254.744 33.4125V35.3626H266.173C268.448 35.3626 270.344 35.1459 271.861 34.7126C273.378 34.2792 274.624 33.6834 275.49 32.925C276.411 32.1666 277.061 31.3541 277.44 30.4874C277.874 29.5665 278.036 28.6998 278.036 27.7789C278.036 26.0455 277.386 24.583 276.14 23.3371C274.894 22.0912 272.836 21.3328 269.965 20.9536ZM263.573 15.4284C263.627 13.695 263.627 11.9616 263.627 10.2282H265.794C267.636 10.2282 269.044 10.6073 269.911 11.3657C270.832 12.1241 271.319 13.3158 271.319 14.995C271.319 16.6743 270.832 18.0285 269.857 18.8952C268.882 19.7619 267.311 20.1411 265.198 20.1411H263.519L263.573 15.4284ZM265.577 33.1959H263.627C263.573 31.4624 263.573 29.729 263.573 27.9414V22.1995H265.415C267.852 22.1995 269.64 22.687 270.778 23.6079C271.915 24.5288 272.511 25.883 272.511 27.7789C272.511 31.3541 270.236 33.1959 265.577 33.1959Z" fill="#FAFAFA"></path><path d="M5.18663 5.89469C6.8117 5.89469 8.11176 4.59464 8.11176 2.96956C8.11176 1.34449 6.8117 0.0444336 5.18663 0.0444336C3.56156 0.0444336 2.2615 1.34449 2.2615 2.96956C2.2615 4.59464 3.56156 5.89469 5.18663 5.89469Z" fill="#FCBC32"></path><path d="M6.21589 19.1121C8.70767 18.5163 10.2786 16.0245 9.68271 13.5327C9.08685 11.0409 6.59507 9.47003 4.1033 10.0659C1.61152 10.6617 0.0406157 13.1535 0.636475 15.6453C1.23234 18.1912 3.72411 19.708 6.21589 19.1121Z" fill="#FCBC32"></path><path d="M6.21589 42.3506C8.70767 41.7547 10.2786 39.263 9.68271 36.7712C9.08685 34.2794 6.59507 32.7085 4.1033 33.3044C1.61152 33.9002 0.0406157 36.392 0.636475 38.8838C1.23234 41.3756 3.72411 42.9465 6.21589 42.3506Z" fill="#FCBC32"></path><path d="M8.05767 26.208C8.05767 24.583 6.75761 23.2829 5.13254 23.2829C3.50747 23.2829 2.20741 24.583 2.20741 26.208C2.20741 27.8331 3.50747 29.1332 5.13254 29.1332C6.75761 29.1332 8.05767 27.8331 8.05767 26.208Z" fill="#FCBC32"></path><path d="M23.0082 25.8832C20.4623 25.8832 18.3497 27.9416 18.3497 30.5417C18.3497 33.0877 20.4081 35.2003 23.0082 35.2003C25.5542 35.2003 27.6668 33.1418 27.6668 30.5417C27.6126 27.9416 25.5542 25.8832 23.0082 25.8832Z" fill="#FCBC32"></path><path d="M23.0083 39.2088C21.3833 39.2088 20.0832 40.5089 20.0832 42.134C20.0832 43.759 21.3833 45.0591 23.0083 45.0591C24.6334 45.0591 25.9335 43.759 25.9335 42.134C25.8793 40.5089 24.5792 39.2088 23.0083 39.2088Z" fill="#FCBC32"></path><path d="M23.0083 21.8203C24.6334 21.8203 25.9335 20.5203 25.9335 18.8952C25.9335 17.2701 24.6334 15.9701 23.0083 15.9701C21.3833 15.9701 20.0832 17.2701 20.0832 18.8952C20.0832 20.5203 21.3833 21.8203 23.0083 21.8203Z" fill="#FCBC32"></path><path d="M23.4416 10.1742C25.0125 9.90332 26.0959 8.44076 25.8251 6.86985C25.5542 5.29895 24.0916 4.21557 22.5207 4.48641C20.9498 4.75726 19.8665 6.21982 20.1373 7.79073C20.4081 9.36163 21.8707 10.3908 23.4416 10.1742Z" fill="#FCBC32"></path><path d="M44.08 17.8662C45.8676 16.0786 45.8676 13.0993 44.08 11.3117C42.2924 9.52413 39.3131 9.52413 37.5256 11.3117C35.738 13.0993 35.738 16.0786 37.5256 17.8662C39.3131 19.7079 42.2924 19.7079 44.08 17.8662Z" fill="#FCBC32"></path><path d="M40.8299 5.89469C42.455 5.89469 43.755 4.59464 43.755 2.96956C43.755 1.34449 42.455 0.0444336 40.8299 0.0444336C39.2048 0.0444336 37.9048 1.34449 37.9048 2.96956C37.9048 4.59464 39.2048 5.89469 40.8299 5.89469Z" fill="#FCBC32"></path><path d="M40.8299 23.3371C39.2048 23.3371 37.9048 24.6372 37.9048 26.2623C37.9048 27.8873 39.2048 29.1874 40.8299 29.1874C42.455 29.1874 43.755 27.8873 43.755 26.2623C43.7009 24.6372 42.4008 23.3371 40.8299 23.3371Z" fill="#FCBC32"></path><path d="M40.8299 34.9293C39.2048 34.9293 37.9048 36.2293 37.9048 37.8544C37.9048 39.4795 39.2048 40.7795 40.8299 40.7795C42.455 40.7795 43.755 39.4795 43.755 37.8544C43.7009 36.2293 42.4008 34.9293 40.8299 34.9293Z" fill="#FCBC32"></path></svg>