<?xml version="1.0" encoding="UTF-8"?> <svg xmlns="http://www.w3.org/2000/svg" width="28" height="32" viewBox="0 0 28 32" fill="none"><path d="M13.3665 0.164363L0.610669 7.55141C0.424924 7.65915 0.270727 7.81388 0.163545 8.00011C0.0563636 8.18634 -3.21182e-05 8.39749 1.37228e-08 8.61243V23.3886C6.92957e-05 23.6035 0.0565085 23.8146 0.16368 24.0008C0.270852 24.187 0.424992 24.3418 0.610669 24.4496L13.3665 31.8356C13.5528 31.9433 13.7641 32 13.9792 32C14.1943 32 14.4056 31.9433 14.5919 31.8356L27.3477 24.4496C27.5334 24.3418 27.6875 24.187 27.7947 24.0008C27.9019 23.8146 27.9583 23.6035 27.9584 23.3886V8.61243C27.9584 8.39749 27.902 8.18634 27.7948 8.00011C27.6876 7.81388 27.5334 7.65915 27.3477 7.55141L14.5919 0.164363C14.4056 0.0566728 14.1943 0 13.9792 0C13.7641 0 13.5528 0.0566728 13.3665 0.164363ZM11.2874 24.7955L12.802 18.3338C12.8129 18.287 12.8115 18.2383 12.7979 18.1923C12.7844 18.1463 12.7591 18.1046 12.7247 18.0713L9.05363 14.4859C9.02653 14.4599 9.00495 14.4286 8.99022 14.3941C8.97549 14.3595 8.9679 14.3223 8.9679 14.2847C8.9679 14.2472 8.97549 14.21 8.99022 14.1754C9.00495 14.1408 9.02653 14.1096 9.05363 14.0836L16.232 6.93993C16.2747 6.89704 16.3302 6.86931 16.39 6.86091C16.4499 6.85251 16.5108 6.86393 16.5636 6.89342C16.6164 6.92292 16.6581 6.96887 16.6824 7.02429C16.7066 7.07972 16.7122 7.14159 16.6981 7.20044L15.1815 13.6773C15.1701 13.7241 15.1712 13.773 15.1845 13.8192C15.1979 13.8654 15.2232 13.9073 15.2578 13.9407L18.9077 17.5061C18.934 17.5321 18.9548 17.563 18.969 17.5971C18.9832 17.6312 18.9905 17.6678 18.9905 17.7047C18.9905 17.7416 18.9832 17.7782 18.969 17.8123C18.9548 17.8464 18.934 17.8773 18.9077 17.9033L11.7544 25.053C11.7117 25.0951 11.6567 25.1222 11.5973 25.1304C11.538 25.1386 11.4776 25.1273 11.4252 25.0984C11.3727 25.0695 11.331 25.0244 11.3061 24.9699C11.2813 24.9153 11.2748 24.8541 11.2874 24.7955V24.7955Z" fill="url(#paint0_linear_144_9360)"></path><defs><linearGradient id="paint0_linear_144_9360" x1="21.0833" y1="4.12347" x2="-5.68649" y2="50.2052" gradientUnits="userSpaceOnUse"><stop stop-color="#792EE5"></stop><stop offset="1" stop-color="#3EABB3"></stop></linearGradient></defs></svg> 